# xmcd CD database file
#
# Track frame offsets:
#	150
#	16362
#	34142
#	51587
#	69527
#	83397
#	92577
#	107402
#	123060
#	142257
#	162267
#	183410
#	202157
#	226605
#
# Disc length: 3248 seconds
#
# Revision: 4
# Processed by: cddbd v1.5.1PL0 Copyright (c) Steve Scherf et al.
# Submitted via: CDex 1.51
#
DISCID=b40cae0e
DTITLE=Disney - Instrumental Love Songs
DYEAR=1998
DGENRE=Instrumental
TTITLE0=Beauty And The Beast
TTITLE1=Someday My Prince Will Come
TTITLE2=If I Never Knew You
TTITLE3=So This Is Love
TTITLE4=Bella Notta
TTITLE5=Love Is A Song
TTITLE6=Can You Feel The Love Tonight
TTITLE7=A Dream Is A Wish Your Heart Makes
TTITLE8=A Whole New World
TTITLE9=Endless Night
TTITLE10=Part Of Your World
TTITLE11=Something There
TTITLE12=Lavender Blue
TTITLE13=When You Wish Upon A Star
EXTD=YEAR: 1998
EXTT0=
EXTT1=
EXTT2=
EXTT3=
EXTT4=
EXTT5=
EXTT6=
EXTT7=
EXTT8=
EXTT9=
EXTT10=
EXTT11=
EXTT12=
EXTT13=
PLAYORDER=
